{"title":"Break Ke Baad [2010] Hindi 1Cd Dvd-Scr Xvid Mp3 Rip By [SAIF] [T","uid":6005787,"size":737762368,"categoryP":"video","categoryS":"movies","magnet":"?xt=urn:btih:9beeb170da9ad59ded2ccfb2d4fc1830412209cc&amp;dn=Break+Ke+Baad+%5B2010%5D+Hindi+1Cd+Dvd-Scr+Xvid+Mp3+Rip+By+%5BSAIF%5D+%5BT&amp;tr=udp%3A%2F%2Ftracker.openbittorrent.com%3A80&amp;tr=udp%3A%2F%2Fopen.demonii.com%3A1337&amp;tr=udp%3A%2F%2Ftracker.coppersurfer.tk%3A6969&amp;tr=udp%3A%2F%2Fexodus.desync.com%3A6969","seeders":1,"leechers":0,"uploader":"amanrulz","files":2,"time":1291315628,"description":"mastitorrents.com\n &lt;a href=&quot;\nhttp://mastitorrents.com/forums/index.php&quot; rel=&quot;nofollow&quot; target=&quot;_NEW&quot;&gt;\nhttp://mastitorrents.com/forums/index.php&lt;/a&gt;\n\nGeneral\nComplete name : D:\\MOVIES\\HINDI\\Break Ke Baad [2010] 1Cd_Dvd-Scr [Xvid &amp; Mp3] Rip By [~SAIF~] [~TDT~]\\Break Ke Baad [2010] 1Cd_Dvd-Scr [Xvid &amp; Mp3] Rip By [~SAIF~] [~TDT~].avi\nFormat : AVI\nFormat/Info : Audio Video Interleave\nFile size : 694 MiB\nDuration : 1h 48mn\nOverall bit rate : 894 Kbps\nWriting library : VirtualDub build 32817/release\n\nVideo\nID : 0\nFormat : MPEG-4 Visual\nFormat profile : Advanced Simple@L5\nFormat settings, BVOP : Yes\nFormat settings, QPel : No\nFormat settings, GMC : No warppoints\nFormat settings, Matrix : Default (H.263)\nCodec ID : XVID\nCodec ID/Hint : XviD\nDuration : 1h 48mn\nBit rate : 756 Kbps\nWidth : 624 pixels\nHeight : 272 pixels\nDisplay aspect ratio : 2.25:1\nFrame rate : 23.976 fps\nColor space : YUV\nChroma subsampling : 4:2:0\nBit depth : 8 bits\nScan type : Progressive\nBits/(Pixel*Frame) : 0.186\nStream size : 587 MiB (85%)\nWriting library : XviD 1.2.1 (UTC 2008-12-04)\n\nAudio\nID : 1\nFormat : MPEG Audio\nFormat version : Version 1\nFormat profile : Layer 3\nMode : Joint stereo\nMode extension : MS Stereo\nCodec ID : 55\nCodec ID/Hint : MP3\nDuration : 1h 48mn\nBit rate mode : Constant\nBit rate : 128 Kbps\nChannel(s) : 2 channels\nSampling rate : 48.0 KHz\nStream size : 99.4 MiB (14%)\nAlignment : Split accross interleaves\nInterleave, duration : 42 ms (1.00 video frame)\nInterleave, preload duration : 500 ms\nWriting library : LAME3.98r\nEncoding settings : -m j -V 4 -q 2 -lowpass 17 -b 128\n","torrent":{"xt":"urn:btih:9beeb170da9ad59ded2ccfb2d4fc1830412209cc","amp;dn":"Break+Ke+Baad+%5B2010%5D+Hindi+1Cd+Dvd-Scr+Xvid+Mp3+Rip+By+%5BSAIF%5D+%5BT","amp;tr":["udp%3A%2F%2Ftracker.openbittorrent.com%3A80","udp%3A%2F%2Fopen.demonii.com%3A1337","udp%3A%2F%2Ftracker.coppersurfer.tk%3A6969","udp%3A%2F%2Fexodus.desync.com%3A6969"],"infoHash":"9beeb170da9ad59ded2ccfb2d4fc1830412209cc","infoHashBuffer":{"type":"Buffer","data":[155,238,177,112,218,154,213,157,237,44,207,178,212,252,24,48,65,34,9,204]},"announce":[],"urlList":[]}}